<svg width="16" height="17" viewBox="0 0 16 17" fill="none" xmlns="http://www.w3.org/2000/svg">
<path fill-rule="evenodd" clip-rule="evenodd" d="M14 0.814453H2C0.897 0.814453 0 1.71145 0 2.81445V14.8145C0 15.9175 0.897 16.8145 2 16.8145H8V11.3145H6V8.81445H8V6.81445C8 6.0188 8.31607 5.25574 8.87868 4.69313C9.44129 4.13052 10.2044 3.81445 11 3.81445H13V6.31445H12C11.448 6.31445 11 6.26245 11 6.81445V8.81445H13.5L12.5 11.3145H11V16.8145H14C15.103 16.8145 16 15.9175 16 14.8145V2.81445C16 1.71145 15.103 0.814453 14 0.814453Z" fill="white"/>
</svg>
