<svg width="16" height="17" viewBox="0 0 16 17" fill="none" xmlns="http://www.w3.org/2000/svg">
<path d="M8 2.26024C10.1205 2.26024 10.4096 2.26024 11.2771 2.26024C12.0482 2.26024 12.4337 2.45301 12.7229 2.54939C13.1084 2.74216 13.3976 2.83855 13.6867 3.12771C13.9759 3.41686 14.1687 3.70602 14.2651 4.09156C14.3614 4.38072 14.4578 4.76626 14.5542 5.53735C14.5542 6.40482 14.5542 6.59759 14.5542 8.81445C14.5542 11.0313 14.5542 11.2241 14.5542 12.0916C14.5542 12.8626 14.3614 13.2482 14.2651 13.5373C14.0723 13.9229 13.9759 14.212 13.6867 14.5012C13.3976 14.7904 13.1084 14.9831 12.7229 15.0795C12.4337 15.1759 12.0482 15.2723 11.2771 15.3687C10.4096 15.3687 10.2169 15.3687 8 15.3687C5.78313 15.3687 5.59036 15.3687 4.72289 15.3687C3.95181 15.3687 3.56627 15.1759 3.27711 15.0795C2.89157 14.8867 2.60241 14.7904 2.31325 14.5012C2.0241 14.212 1.83133 13.9229 1.73494 13.5373C1.63855 13.2482 1.54217 12.8626 1.44578 12.0916C1.44578 11.2241 1.44578 11.0313 1.44578 8.81445C1.44578 6.59759 1.44578 6.40482 1.44578 5.53735C1.44578 4.76626 1.63855 4.38072 1.73494 4.09156C1.92771 3.70602 2.0241 3.41686 2.31325 3.12771C2.60241 2.83855 2.89157 2.64578 3.27711 2.54939C3.56627 2.45301 3.95181 2.35662 4.72289 2.26024C5.59036 2.26024 5.87952 2.26024 8 2.26024ZM8 0.814453C5.78313 0.814453 5.59036 0.814453 4.72289 0.814453C3.85542 0.814453 3.27711 1.00722 2.79518 1.2C2.31325 1.39277 1.83133 1.68192 1.3494 2.16385C0.867471 2.64578 0.674699 3.03132 0.385543 3.60963C0.192772 4.09156 0.0963856 4.66988 0 5.53735C0 6.40482 0 6.69397 0 8.81445C0 11.0313 0 11.2241 0 12.0916C0 12.959 0.192772 13.5373 0.385543 14.0193C0.578314 14.5012 0.867471 14.9831 1.3494 15.4651C1.83133 15.947 2.21687 16.1398 2.79518 16.4289C3.27711 16.6217 3.85542 16.7181 4.72289 16.8145C5.59036 16.8145 5.87952 16.8145 8 16.8145C10.1205 16.8145 10.4096 16.8145 11.2771 16.8145C12.1446 16.8145 12.7229 16.6217 13.2048 16.4289C13.6867 16.2361 14.1687 15.947 14.6506 15.4651C15.1325 14.9831 15.3253 14.5976 15.6145 14.0193C15.8072 13.5373 15.9036 12.959 16 12.0916C16 11.2241 16 10.9349 16 8.81445C16 6.69397 16 6.40482 16 5.53735C16 4.66988 15.8072 4.09156 15.6145 3.60963C15.4217 3.12771 15.1325 2.64578 14.6506 2.16385C14.1687 1.68192 13.7831 1.48915 13.2048 1.2C12.7229 1.00722 12.1446 0.910839 11.2771 0.814453C10.4096 0.814453 10.2169 0.814453 8 0.814453Z" fill="white"/>
<path d="M8 4.66988C5.68675 4.66988 3.85542 6.5012 3.85542 8.81445C3.85542 11.1277 5.68675 12.959 8 12.959C10.3133 12.959 12.1446 11.1277 12.1446 8.81445C12.1446 6.5012 10.3133 4.66988 8 4.66988ZM8 11.5132C6.55422 11.5132 5.30121 10.3566 5.30121 8.81445C5.30121 7.36867 6.45783 6.11566 8 6.11566C9.44578 6.11566 10.6988 7.27229 10.6988 8.81445C10.6988 10.2602 9.44578 11.5132 8 11.5132Z" fill="white"/>
<path d="M12.241 5.53735C12.7733 5.53735 13.2048 5.10581 13.2048 4.57349C13.2048 4.04117 12.7733 3.60963 12.241 3.60963C11.7086 3.60963 11.2771 4.04117 11.2771 4.57349C11.2771 5.10581 11.7086 5.53735 12.241 5.53735Z" fill="white"/>
</svg>
