<svg width="407" height="32" viewBox="0 0 407 32" fill="none" xmlns="http://www.w3.org/2000/svg">
<path fill-rule="evenodd" clip-rule="evenodd" d="M14.7012 30.6667C22.8204 30.6667 29.4024 24.1002 29.4024 16C29.4024 7.89984 22.8204 1.33334 14.7012 1.33334C6.58192 1.33334 0 7.89984 0 16C0 24.1002 6.58192 30.6667 14.7012 30.6667ZM19.2874 8.1657C19.5107 7.37458 18.7411 6.90678 18.0383 7.4063L8.2276 14.379C7.46541 14.9208 7.5853 16 8.40769 16H10.9911V15.9801H16.0261L11.9235 17.4242L10.1149 23.8344C9.8917 24.6255 10.6612 25.0933 11.364 24.5937L21.1748 17.621C21.9369 17.0793 21.817 16 20.9947 16H17.077L19.2874 8.1657Z" fill="#BCBFC2"/>
<path d="M37.0069 22.6061V20.2861H38.8512V10.9261H37.0069V8.60614H44.2238C45.0792 8.60614 45.8209 8.75281 46.4491 9.04614C47.0906 9.32614 47.5851 9.73281 47.9325 10.2661C48.2934 10.7861 48.4738 11.4128 48.4738 12.1461V12.3461C48.4738 12.9861 48.3535 13.5128 48.113 13.9261C47.8724 14.3261 47.5851 14.6395 47.2509 14.8661C46.9302 15.0795 46.6228 15.2328 46.3288 15.3261V15.6861C46.6228 15.7661 46.9436 15.9195 47.291 16.1461C47.6385 16.3595 47.9325 16.6728 48.1731 17.0861C48.427 17.4995 48.554 18.0395 48.554 18.7061V18.9061C48.554 19.6795 48.3736 20.3461 48.0127 20.9061C47.6519 21.4528 47.1507 21.8728 46.5092 22.1661C45.8811 22.4595 45.146 22.6061 44.304 22.6061H37.0069ZM41.4974 20.2061H43.9833C44.558 20.2061 45.019 20.0661 45.3665 19.7861C45.7274 19.5061 45.9078 19.1061 45.9078 18.5861V18.3861C45.9078 17.8661 45.734 17.4661 45.3866 17.1861C45.0391 16.9061 44.5713 16.7661 43.9833 16.7661H41.4974V20.2061ZM41.4974 14.3661H43.9432C44.4911 14.3661 44.9389 14.2261 45.2863 13.9461C45.6472 13.6661 45.8276 13.2795 45.8276 12.7861V12.5861C45.8276 12.0795 45.6539 11.6928 45.3064 11.4261C44.9589 11.1461 44.5045 11.0061 43.9432 11.0061H41.4974V14.3661Z" fill="#BCBFC2"/>
<path d="M54.5293 22.8861C53.5403 22.8861 52.6515 22.6861 51.863 22.2861C51.0745 21.8861 50.453 21.3061 49.9986 20.5461C49.5442 19.7861 49.317 18.8728 49.317 17.8061V17.4861C49.317 16.4195 49.5442 15.5061 49.9986 14.7461C50.453 13.9861 51.0745 13.4061 51.863 13.0061C52.6515 12.6061 53.5403 12.4061 54.5293 12.4061C55.5183 12.4061 56.407 12.6061 57.1955 13.0061C57.9841 13.4061 58.6055 13.9861 59.0599 14.7461C59.5143 15.5061 59.7415 16.4195 59.7415 17.4861V17.8061C59.7415 18.8728 59.5143 19.7861 59.0599 20.5461C58.6055 21.3061 57.9841 21.8861 57.1955 22.2861C56.407 22.6861 55.5183 22.8861 54.5293 22.8861ZM54.5293 20.6461C55.3044 20.6461 55.9459 20.3995 56.4538 19.9061C56.9617 19.3995 57.2156 18.6795 57.2156 17.7461V17.5461C57.2156 16.6128 56.9617 15.8995 56.4538 15.4061C55.9593 14.8995 55.3178 14.6461 54.5293 14.6461C53.7541 14.6461 53.1126 14.8995 52.6048 15.4061C52.0969 15.8995 51.843 16.6128 51.843 17.5461V17.7461C51.843 18.6795 52.0969 19.3995 52.6048 19.9061C53.1126 20.3995 53.7541 20.6461 54.5293 20.6461Z" fill="#BCBFC2"/>
<path d="M61.0707 22.6061V8.60614H63.5967V22.6061H61.0707Z" fill="#BCBFC2"/>
<path d="M69.2023 22.6061C68.5474 22.6061 68.0129 22.4061 67.5986 22.0061C67.1976 21.5928 66.9971 21.0461 66.9971 20.3661V14.7661H64.5113V12.6861H66.9971V9.60614H69.5231V12.6861H72.2495V14.7661H69.5231V19.9261C69.5231 20.3261 69.7102 20.5261 70.0844 20.5261H72.0089V22.6061H69.2023Z" fill="#BCBFC2"/>
<path d="M77.6633 22.8861C76.3669 22.8861 75.3044 22.6061 74.4758 22.0461C73.6472 21.4861 73.146 20.6861 72.9723 19.6461L75.2977 19.0461C75.3913 19.5128 75.545 19.8795 75.7588 20.1461C75.986 20.4128 76.26 20.6061 76.5807 20.7261C76.9148 20.8328 77.2757 20.8861 77.6633 20.8861C78.2513 20.8861 78.6857 20.7861 78.9663 20.5861C79.247 20.3728 79.3873 20.1128 79.3873 19.8061C79.3873 19.4995 79.2537 19.2661 78.9864 19.1061C78.7191 18.9328 78.2914 18.7928 77.7034 18.6861L77.142 18.5861C76.4471 18.4528 75.8123 18.2728 75.2376 18.0461C74.6629 17.8061 74.2018 17.4795 73.8543 17.0661C73.5069 16.6528 73.3331 16.1195 73.3331 15.4661C73.3331 14.4795 73.694 13.7261 74.4156 13.2061C75.1373 12.6728 76.0862 12.4061 77.2623 12.4061C78.3716 12.4061 79.2938 12.6528 80.0288 13.1461C80.7639 13.6395 81.245 14.2861 81.4722 15.0861L79.1267 15.8061C79.0198 15.2995 78.7993 14.9395 78.4652 14.7261C78.1444 14.5128 77.7435 14.4061 77.2623 14.4061C76.7812 14.4061 76.4137 14.4928 76.1597 14.6661C75.9058 14.8261 75.7788 15.0528 75.7788 15.3461C75.7788 15.6661 75.9125 15.9061 76.1798 16.0661C76.4471 16.2128 76.8079 16.3261 77.2623 16.4061L77.8237 16.5061C78.5721 16.6395 79.247 16.8195 79.8484 17.0461C80.4632 17.2595 80.9443 17.5728 81.2918 17.9861C81.6526 18.3861 81.8331 18.9328 81.8331 19.6261C81.8331 20.6661 81.4522 21.4728 80.6904 22.0461C79.942 22.6061 78.9329 22.8861 77.6633 22.8861Z" fill="#BCBFC2"/>
<path d="M83.0442 22.6061V8.60614H85.5701V13.9061H85.931C86.0379 13.6928 86.2049 13.4795 86.4321 13.2661C86.6593 13.0528 86.96 12.8795 87.3343 12.7461C87.7218 12.5995 88.2096 12.5261 88.7977 12.5261C89.5728 12.5261 90.2478 12.7061 90.8224 13.0661C91.4105 13.4128 91.8649 13.8995 92.1856 14.5261C92.5064 15.1395 92.6668 15.8595 92.6668 16.6861V22.6061H90.1408V16.8861C90.1408 16.1395 89.9537 15.5795 89.5795 15.2061C89.2187 14.8328 88.6975 14.6461 88.0159 14.6461C87.2407 14.6461 86.6393 14.9061 86.2116 15.4261C85.784 15.9328 85.5701 16.6461 85.5701 17.5661V22.6061H83.0442Z" fill="#BCBFC2"/>
<path d="M94.3951 22.6061V12.6861H96.921V22.6061H94.3951ZM95.658 11.5261C95.2036 11.5261 94.816 11.3795 94.4953 11.0861C94.1879 10.7928 94.0342 10.4061 94.0342 9.92614C94.0342 9.44614 94.1879 9.05948 94.4953 8.76614C94.816 8.47281 95.2036 8.32614 95.658 8.32614C96.1258 8.32614 96.5134 8.47281 96.8207 8.76614C97.1281 9.05948 97.2818 9.44614 97.2818 9.92614C97.2818 10.4061 97.1281 10.7928 96.8207 11.0861C96.5134 11.3795 96.1258 11.5261 95.658 11.5261Z" fill="#BCBFC2"/>
<path d="M100.362 22.6061V14.7661H97.8356V12.6861H100.362V10.8461C100.362 10.1661 100.562 9.62614 100.963 9.22614C101.377 8.81281 101.912 8.60614 102.567 8.60614H105.173V10.6861H103.449C103.075 10.6861 102.887 10.8861 102.887 11.2861V12.6861H105.494V14.7661H102.887V22.6061H100.362Z" fill="#BCBFC2"/>
<path d="M110.06 22.6061C109.405 22.6061 108.87 22.4061 108.456 22.0061C108.055 21.5928 107.855 21.0461 107.855 20.3661V14.7661H105.369V12.6861H107.855V9.60614H110.381V12.6861H113.107V14.7661H110.381V19.9261C110.381 20.3261 110.568 20.5261 110.942 20.5261H112.867V22.6061H110.06Z" fill="#BCBFC2"/>
<path fill-rule="evenodd" clip-rule="evenodd" d="M158.667 2.29861C158.333 2.22936 157.988 2.22936 157.654 2.29861C157.268 2.37865 156.924 2.5735 156.649 2.7284L156.575 2.77051L147.28 7.97772C147.254 7.99212 147.228 8.00683 147.201 8.0219C146.911 8.18315 146.546 8.38589 146.265 8.69264C146.023 8.95784 145.839 9.27217 145.727 9.61461C145.597 10.0107 145.599 10.4309 145.6 10.7651C145.6 10.7964 145.6 10.8269 145.6 10.8565V21.1378C145.6 21.1674 145.6 21.1979 145.6 21.2292C145.599 21.5634 145.597 21.9836 145.727 22.3797C145.839 22.7221 146.023 23.0365 146.265 23.3017C146.546 23.6084 146.911 23.8112 147.201 23.9724C147.228 23.9875 147.254 24.0022 147.28 24.0166L156.575 29.2238L156.649 29.2659C156.924 29.4208 157.268 29.6156 157.654 29.6957C157.988 29.7649 158.333 29.7649 158.667 29.6957C159.052 29.6156 159.397 29.4208 159.672 29.2659L159.746 29.2238L169.041 24.0166C169.052 24.0102 169.064 24.0038 169.075 23.9973C169.09 23.9891 169.105 23.9808 169.12 23.9724C169.41 23.8112 169.775 23.6084 170.056 23.3017C170.298 23.0365 170.481 22.7221 170.594 22.3797C170.723 21.9836 170.722 21.5634 170.721 21.2292C170.721 21.1979 170.72 21.1674 170.72 21.1378V10.8565C170.72 10.8269 170.721 10.7964 170.721 10.7652C170.722 10.4309 170.723 10.0107 170.594 9.6146C170.481 9.27217 170.298 8.95784 170.056 8.69264C169.775 8.38589 169.41 8.18314 169.12 8.02189L169.119 8.02132C169.092 8.00645 169.066 7.99193 169.041 7.97772L159.746 2.77051L159.672 2.72839C159.397 2.57349 159.052 2.37865 158.667 2.29861ZM157.794 4.98496C157.985 4.87832 158.082 4.82444 158.154 4.78918L158.16 4.78628L158.166 4.78918C158.239 4.82444 158.336 4.87832 158.526 4.98495L166.878 9.66402L158.16 14.5482L149.443 9.66405L157.794 4.98496ZM148.112 11.8167L156.904 16.7424L156.904 26.5107L148.5 21.8021C148.299 21.6896 148.197 21.6315 148.125 21.5853L148.119 21.5813L148.118 21.5741C148.113 21.4882 148.112 21.3696 148.112 21.1378V11.8167Z" fill="#BCBFC2"/>
<path d="M182.152 20.2301H186.15V22.6061H179.099V9.97014H182.152V20.2301Z" fill="#BCBFC2"/>
<path d="M188.962 11.5181C188.427 11.5181 187.986 11.3621 187.641 11.0501C187.308 10.7261 187.142 10.3301 187.142 9.86214C187.142 9.38214 187.308 8.98614 187.641 8.67414C187.986 8.35014 188.427 8.18814 188.962 8.18814C189.486 8.18814 189.914 8.35014 190.247 8.67414C190.592 8.98614 190.765 9.38214 190.765 9.86214C190.765 10.3301 190.592 10.7261 190.247 11.0501C189.914 11.3621 189.486 11.5181 188.962 11.5181ZM190.479 12.5621V22.6061H187.427V12.5621H190.479Z" fill="#BCBFC2"/>
<path d="M196.297 12.4181C196.999 12.4181 197.612 12.5621 198.135 12.8501C198.671 13.1381 199.081 13.5161 199.367 13.9841V12.5621H202.419V22.5881C202.419 23.5121 202.235 24.3461 201.866 25.0901C201.509 25.8461 200.955 26.4461 200.206 26.8901C199.468 27.3341 198.546 27.5561 197.439 27.5561C195.964 27.5561 194.768 27.2021 193.851 26.4941C192.935 25.7981 192.412 24.8501 192.281 23.6501H195.297C195.392 24.0341 195.619 24.3341 195.976 24.5501C196.333 24.7781 196.773 24.8921 197.296 24.8921C197.927 24.8921 198.427 24.7061 198.796 24.3341C199.176 23.9741 199.367 23.3921 199.367 22.5881V21.1661C199.069 21.6341 198.659 22.0181 198.135 22.3181C197.612 22.6061 196.999 22.7501 196.297 22.7501C195.476 22.7501 194.732 22.5401 194.066 22.1201C193.399 21.6881 192.87 21.0821 192.477 20.3021C192.096 19.5101 191.906 18.5981 191.906 17.5661C191.906 16.5341 192.096 15.6281 192.477 14.8481C192.87 14.0681 193.399 13.4681 194.066 13.0481C194.732 12.6281 195.476 12.4181 196.297 12.4181ZM199.367 17.5841C199.367 16.8161 199.153 16.2101 198.724 15.7661C198.308 15.3221 197.796 15.1001 197.189 15.1001C196.582 15.1001 196.065 15.3221 195.636 15.7661C195.22 16.1981 195.012 16.7981 195.012 17.5661C195.012 18.3341 195.22 18.9461 195.636 19.4021C196.065 19.8461 196.582 20.0681 197.189 20.0681C197.796 20.0681 198.308 19.8461 198.724 19.4021C199.153 18.9581 199.367 18.3521 199.367 17.5841Z" fill="#BCBFC2"/>
<path d="M210.571 12.4541C211.713 12.4541 212.63 12.8381 213.32 13.6061C214.01 14.3621 214.355 15.4061 214.355 16.7381V22.6061H211.321V17.1521C211.321 16.4801 211.148 15.9581 210.803 15.5861C210.458 15.2141 209.994 15.0281 209.411 15.0281C208.828 15.0281 208.364 15.2141 208.019 15.5861C207.673 15.9581 207.501 16.4801 207.501 17.1521V22.6061H204.449V9.28614H207.501V13.9121C207.81 13.4681 208.233 13.1141 208.768 12.8501C209.304 12.5861 209.905 12.4541 210.571 12.4541Z" fill="#BCBFC2"/>
<path d="M221.849 19.9961V22.6061H220.296C219.189 22.6061 218.326 22.3361 217.708 21.7961C217.089 21.2441 216.779 20.3501 216.779 19.1141V15.1181H215.566V12.5621H216.779V10.1141H219.832V12.5621H221.831V15.1181H219.832V19.1501C219.832 19.4501 219.903 19.6661 220.046 19.7981C220.189 19.9301 220.427 19.9961 220.76 19.9961H221.849Z" fill="#BCBFC2"/>
<path d="M226.422 13.9841C226.708 13.5161 227.118 13.1381 227.654 12.8501C228.189 12.5621 228.802 12.4181 229.492 12.4181C230.313 12.4181 231.057 12.6281 231.724 13.0481C232.39 13.4681 232.913 14.0681 233.294 14.8481C233.687 15.6281 233.883 16.5341 233.883 17.5661C233.883 18.5981 233.687 19.5101 233.294 20.3021C232.913 21.0821 232.39 21.6881 231.724 22.1201C231.057 22.5401 230.313 22.7501 229.492 22.7501C228.79 22.7501 228.178 22.6121 227.654 22.3361C227.13 22.0481 226.72 21.6701 226.422 21.2021V22.6061H223.37V9.28614H226.422V13.9841ZM230.778 17.5661C230.778 16.7981 230.563 16.1981 230.135 15.7661C229.718 15.3221 229.201 15.1001 228.582 15.1001C227.975 15.1001 227.458 15.3221 227.029 15.7661C226.613 16.2101 226.404 16.8161 226.404 17.5841C226.404 18.3521 226.613 18.9581 227.029 19.4021C227.458 19.8461 227.975 20.0681 228.582 20.0681C229.189 20.0681 229.707 19.8461 230.135 19.4021C230.563 18.9461 230.778 18.3341 230.778 17.5661Z" fill="#BCBFC2"/>
<path d="M239.84 22.7501C238.864 22.7501 237.983 22.5401 237.198 22.1201C236.425 21.7001 235.812 21.1001 235.36 20.3201C234.919 19.5401 234.699 18.6281 234.699 17.5841C234.699 16.5521 234.925 15.6461 235.377 14.8661C235.83 14.0741 236.448 13.4681 237.234 13.0481C238.019 12.6281 238.9 12.4181 239.875 12.4181C240.851 12.4181 241.732 12.6281 242.517 13.0481C243.302 13.4681 243.921 14.0741 244.373 14.8661C244.826 15.6461 245.052 16.5521 245.052 17.5841C245.052 18.6161 244.82 19.5281 244.356 20.3201C243.903 21.1001 243.279 21.7001 242.481 22.1201C241.696 22.5401 240.815 22.7501 239.84 22.7501ZM239.84 20.0861C240.423 20.0861 240.917 19.8701 241.321 19.4381C241.738 19.0061 241.946 18.3881 241.946 17.5841C241.946 16.7801 241.744 16.1621 241.339 15.7301C240.946 15.2981 240.458 15.0821 239.875 15.0821C239.28 15.0821 238.787 15.2981 238.394 15.7301C238.001 16.1501 237.805 16.7681 237.805 17.5841C237.805 18.3881 237.995 19.0061 238.376 19.4381C238.769 19.8701 239.257 20.0861 239.84 20.0861Z" fill="#BCBFC2"/>
<path d="M252.383 22.6061L250.473 19.8161L248.866 22.6061H245.564L248.848 17.4761L245.475 12.5621H248.902L250.812 15.3341L252.418 12.5621H255.72L252.383 17.6201L255.81 22.6061H252.383Z" fill="#BCBFC2"/>
<path opacity="0.8" d="M312.351 7.4421C312.061 7.15396 311.771 6.86581 311.481 6.57766C310.612 5.65559 309.684 4.73353 308.524 4.15723C307.191 3.46568 305.742 3.63856 304.292 3.63856C302.089 3.63856 296.581 3.63856 293.334 3.63856L295.537 6.57766C299.538 6.57766 305.799 6.57766 308.698 6.57766C309.916 6.57766 310.96 6.80818 311.945 7.4421C312.119 7.49973 312.293 7.49973 312.351 7.4421Z" fill="#BCBFC2"/>
<path opacity="0.9" d="M314.786 12.1677C314.496 11.8796 314.206 11.5914 313.916 11.3033C313.047 10.3812 312.119 9.45914 310.96 8.88284C309.626 8.19129 308.177 8.36418 306.727 8.36418C304.814 8.36418 300.233 8.36418 296.987 8.36418L299.19 11.3033C303.132 11.3033 308.524 11.3033 311.191 11.3033C312.409 11.3033 313.453 11.5338 314.438 12.1677C314.554 12.2253 314.67 12.2253 314.786 12.1677Z" fill="#BCBFC2"/>
<path d="M317.511 16.7779C317.221 16.4898 316.931 16.2016 316.641 15.9135C315.772 14.9914 314.844 14.0693 313.685 13.493C312.351 12.8015 310.902 12.9744 309.452 12.9744C307.655 12.9744 303.712 12.9744 300.523 12.9744L302.727 15.9135C306.553 15.9135 311.423 15.9135 313.858 15.9135C315.076 15.9135 316.12 16.144 317.105 16.7779C317.279 16.8355 317.395 16.8932 317.511 16.7779Z" fill="#BCBFC2"/>
<path opacity="0.8" d="M293.102 24.5579C293.392 24.846 293.682 25.1342 293.972 25.4223C294.842 26.3444 295.769 27.2665 296.929 27.8428C298.262 28.5343 299.712 28.3614 301.161 28.3614H312.119L309.916 25.4223C305.915 25.4223 299.654 25.4223 296.755 25.4223C295.537 25.4223 294.494 25.1918 293.508 24.5579C293.334 24.5003 293.218 24.5003 293.102 24.5579Z" fill="#BCBFC2"/>
<path opacity="0.9" d="M290.667 19.8324C290.957 20.1206 291.247 20.4087 291.537 20.6968C292.406 21.6189 293.334 22.541 294.494 23.1173C295.827 23.8088 297.277 23.6359 298.726 23.6359H308.466L306.263 20.6968C302.321 20.6968 296.929 20.6968 294.262 20.6968C293.044 20.6968 292.001 20.4663 291.015 19.8324C290.899 19.7748 290.783 19.7748 290.667 19.8324Z" fill="#BCBFC2"/>
<path d="M288 15.1643C288.29 15.4525 288.58 15.7406 288.87 16.0288C289.739 16.9508 290.667 17.8729 291.827 18.4492C293.16 19.1407 294.61 18.9679 296.059 18.9679H304.988L302.785 16.0288C298.958 16.0288 294.088 16.0288 291.653 16.0288C290.435 16.0288 289.391 15.7982 288.406 15.1643C288.232 15.1067 288.116 15.1067 288 15.1643Z" fill="#BCBFC2"/>
<path d="M324.173 9.33865V22.6667H327.121V17.16H332.736V14.8827H327.121V11.8027H333.6V9.33865H324.173Z" fill="#BCBFC2"/>
<path d="M340.995 16.8053H336.657C336.669 16.6187 336.707 16.4071 336.77 16.1707C336.845 15.9342 336.964 15.7102 337.126 15.4987C337.302 15.2871 337.527 15.1129 337.802 14.976C338.09 14.8267 338.447 14.752 338.873 14.752C339.524 14.752 340.006 14.9262 340.319 15.2747C340.644 15.6231 340.87 16.1333 340.995 16.8053ZM336.657 18.4853H343.662C343.712 17.7387 343.649 17.0231 343.474 16.3387C343.299 15.6542 343.011 15.0444 342.61 14.5093C342.222 13.9742 341.721 13.5511 341.108 13.24C340.494 12.9164 339.774 12.7547 338.948 12.7547C338.209 12.7547 337.533 12.8853 336.92 13.1467C336.319 13.408 335.799 13.7689 335.361 14.2293C334.923 14.6773 334.585 15.2124 334.347 15.8347C334.109 16.4569 333.99 17.1289 333.99 17.8507C333.99 18.5973 334.103 19.2818 334.328 19.904C334.566 20.5262 334.898 21.0613 335.323 21.5093C335.749 21.9573 336.269 22.3058 336.882 22.5547C337.496 22.7911 338.184 22.9093 338.948 22.9093C340.05 22.9093 340.989 22.6604 341.765 22.1627C342.541 21.6649 343.117 20.8373 343.493 19.68H341.145C341.058 19.9787 340.82 20.2649 340.432 20.5387C340.043 20.8 339.58 20.9307 339.042 20.9307C338.291 20.9307 337.715 20.7378 337.314 20.352C336.914 19.9662 336.694 19.344 336.657 18.4853Z" fill="#BCBFC2"/>
<path d="M344.567 15.984C344.605 15.3618 344.761 14.8453 345.037 14.4347C345.312 14.024 345.663 13.6942 346.088 13.4453C346.514 13.1964 346.99 13.0222 347.516 12.9227C348.054 12.8107 348.592 12.7547 349.131 12.7547C349.619 12.7547 350.114 12.792 350.614 12.8667C351.115 12.9289 351.572 13.0595 351.985 13.2587C352.398 13.4578 352.736 13.7378 352.999 14.0987C353.262 14.4471 353.394 14.9138 353.394 15.4987V20.52C353.394 20.9555 353.419 21.3724 353.469 21.7707C353.519 22.1689 353.607 22.4675 353.732 22.6667H351.028C350.977 22.5173 350.934 22.368 350.896 22.2187C350.871 22.0569 350.852 21.8951 350.84 21.7333C350.414 22.1689 349.913 22.4738 349.337 22.648C348.761 22.8222 348.173 22.9093 347.572 22.9093C347.109 22.9093 346.677 22.8533 346.276 22.7413C345.876 22.6293 345.525 22.4551 345.225 22.2187C344.924 21.9822 344.686 21.6835 344.511 21.3227C344.348 20.9618 344.267 20.5324 344.267 20.0347C344.267 19.4871 344.361 19.0391 344.548 18.6907C344.749 18.3298 344.999 18.0435 345.3 17.832C345.613 17.6204 345.963 17.4649 346.351 17.3653C346.752 17.2533 347.153 17.1662 347.553 17.104C347.954 17.0418 348.348 16.992 348.736 16.9547C349.124 16.9173 349.469 16.8613 349.769 16.7867C350.07 16.712 350.308 16.6062 350.483 16.4693C350.658 16.32 350.74 16.1084 350.727 15.8347C350.727 15.5484 350.677 15.3244 350.577 15.1627C350.489 14.9884 350.364 14.8578 350.201 14.7707C350.051 14.6711 349.869 14.6089 349.657 14.584C349.456 14.5467 349.237 14.528 348.999 14.528C348.473 14.528 348.06 14.64 347.76 14.864C347.459 15.088 347.284 15.4613 347.234 15.984H344.567ZM350.727 17.944C350.614 18.0435 350.47 18.1244 350.295 18.1867C350.132 18.2364 349.951 18.28 349.75 18.3173C349.563 18.3547 349.362 18.3858 349.15 18.4107C348.937 18.4355 348.724 18.4667 348.511 18.504C348.311 18.5413 348.11 18.5911 347.91 18.6533C347.722 18.7155 347.553 18.8027 347.403 18.9147C347.265 19.0142 347.153 19.1449 347.065 19.3067C346.977 19.4684 346.934 19.6738 346.934 19.9227C346.934 20.1591 346.977 20.3582 347.065 20.52C347.153 20.6818 347.272 20.8124 347.422 20.912C347.572 20.9991 347.747 21.0613 347.948 21.0987C348.148 21.136 348.355 21.1547 348.567 21.1547C349.093 21.1547 349.5 21.0675 349.788 20.8933C350.076 20.7191 350.289 20.5138 350.427 20.2773C350.564 20.0284 350.646 19.7795 350.671 19.5307C350.708 19.2818 350.727 19.0827 350.727 18.9333V17.944Z" fill="#BCBFC2"/>
<path d="M358.281 13.016V10.1227H355.614V13.016H353.999V14.7893H355.614V20.4827C355.614 20.968 355.695 21.36 355.858 21.6587C356.021 21.9573 356.24 22.1875 356.515 22.3493C356.803 22.5111 357.129 22.6169 357.492 22.6667C357.867 22.7289 358.262 22.76 358.675 22.76C358.938 22.76 359.207 22.7538 359.483 22.7413C359.758 22.7289 360.008 22.704 360.234 22.6667V20.6133C360.109 20.6382 359.977 20.6569 359.839 20.6693C359.702 20.6818 359.558 20.688 359.407 20.688C358.957 20.688 358.656 20.6133 358.506 20.464C358.356 20.3147 358.281 20.016 358.281 19.568V14.7893H360.234V13.016H358.281Z" fill="#BCBFC2"/>
<path d="M360.939 9.33865V22.6667H363.606V17.608C363.606 16.6249 363.769 15.9218 364.094 15.4987C364.42 15.0631 364.945 14.8453 365.672 14.8453C366.31 14.8453 366.755 15.0444 367.005 15.4427C367.255 15.8284 367.381 16.4195 367.381 17.216V22.6667H370.047V16.7307C370.047 16.1333 369.991 15.592 369.878 15.1067C369.778 14.6089 369.597 14.192 369.334 13.856C369.071 13.5075 368.708 13.24 368.244 13.0533C367.794 12.8542 367.212 12.7547 366.498 12.7547C365.997 12.7547 365.484 12.8853 364.958 13.1467C364.432 13.3955 364 13.8 363.662 14.36H363.606V9.33865H360.939Z" fill="#BCBFC2"/>
<path d="M378.043 16.8053H373.705C373.718 16.6187 373.755 16.4071 373.818 16.1707C373.893 15.9342 374.012 15.7102 374.175 15.4987C374.35 15.2871 374.575 15.1129 374.851 14.976C375.139 14.8267 375.495 14.752 375.921 14.752C376.572 14.752 377.054 14.9262 377.367 15.2747C377.693 15.6231 377.918 16.1333 378.043 16.8053ZM373.705 18.4853H380.71C380.76 17.7387 380.697 17.0231 380.522 16.3387C380.347 15.6542 380.059 15.0444 379.658 14.5093C379.27 13.9742 378.769 13.5511 378.156 13.24C377.542 12.9164 376.823 12.7547 375.996 12.7547C375.258 12.7547 374.582 12.8853 373.968 13.1467C373.367 13.408 372.848 13.7689 372.409 14.2293C371.971 14.6773 371.633 15.2124 371.395 15.8347C371.157 16.4569 371.038 17.1289 371.038 17.8507C371.038 18.5973 371.151 19.2818 371.376 19.904C371.614 20.5262 371.946 21.0613 372.372 21.5093C372.797 21.9573 373.317 22.3058 373.931 22.5547C374.544 22.7911 375.233 22.9093 375.996 22.9093C377.098 22.9093 378.037 22.6604 378.813 22.1627C379.589 21.6649 380.165 20.8373 380.541 19.68H378.194C378.106 19.9787 377.868 20.2649 377.48 20.5387C377.092 20.8 376.629 20.9307 376.09 20.9307C375.339 20.9307 374.763 20.7378 374.362 20.352C373.962 19.9662 373.743 19.344 373.705 18.4853Z" fill="#BCBFC2"/>
<path d="M381.728 13.016V22.6667H384.395V18.3173C384.395 17.8818 384.439 17.4773 384.526 17.104C384.614 16.7307 384.758 16.4071 384.958 16.1333C385.171 15.8471 385.447 15.6231 385.785 15.4613C386.123 15.2995 386.536 15.2187 387.024 15.2187C387.187 15.2187 387.356 15.2311 387.531 15.256C387.706 15.2684 387.857 15.2871 387.982 15.312V12.848C387.769 12.7858 387.575 12.7547 387.4 12.7547C387.062 12.7547 386.736 12.8044 386.423 12.904C386.11 13.0035 385.816 13.1467 385.541 13.3333C385.265 13.5075 385.021 13.7253 384.808 13.9867C384.595 14.2355 384.426 14.5093 384.301 14.808H384.263V13.016H381.728Z" fill="#BCBFC2"/>
<path d="M391.694 20.2027V11.8027H393.797C394.524 11.8027 395.131 11.9084 395.619 12.12C396.12 12.3191 396.521 12.6115 396.821 12.9973C397.121 13.3831 397.334 13.8498 397.46 14.3973C397.597 14.9324 397.666 15.536 397.666 16.208C397.666 16.9422 397.572 17.5644 397.384 18.0747C397.197 18.5849 396.946 19.0018 396.633 19.3253C396.32 19.6364 395.963 19.8604 395.563 19.9973C395.162 20.1342 394.749 20.2027 394.323 20.2027H391.694ZM388.746 9.33865V22.6667H394.53C395.557 22.6667 396.445 22.4987 397.197 22.1627C397.96 21.8142 398.593 21.3413 399.093 20.744C399.607 20.1467 399.989 19.4373 400.239 18.616C400.489 17.7947 400.615 16.8987 400.615 15.928C400.615 14.8204 400.458 13.856 400.145 13.0347C399.845 12.2133 399.419 11.5289 398.868 10.9813C398.33 10.4338 397.685 10.0231 396.934 9.74932C396.195 9.47554 395.394 9.33865 394.53 9.33865H388.746Z" fill="#BCBFC2"/>
<path d="M408.356 16.8053H404.018C404.03 16.6187 404.068 16.4071 404.13 16.1707C404.205 15.9342 404.324 15.7102 404.487 15.4987C404.662 15.2871 404.888 15.1129 405.163 14.976C405.451 14.8267 405.808 14.752 406.234 14.752C406.885 14.752 407.367 14.9262 407.68 15.2747C408.005 15.6231 408.231 16.1333 408.356 16.8053ZM404.018 18.4853H411.022C411.073 17.7387 411.01 17.0231 410.835 16.3387C410.659 15.6542 410.371 15.0444 409.971 14.5093C409.583 13.9742 409.082 13.5511 408.468 13.24C407.855 12.9164 407.135 12.7547 406.309 12.7547C405.57 12.7547 404.894 12.8853 404.281 13.1467C403.68 13.408 403.16 13.7689 402.722 14.2293C402.284 14.6773 401.946 15.2124 401.708 15.8347C401.47 16.4569 401.351 17.1289 401.351 17.8507C401.351 18.5973 401.464 19.2818 401.689 19.904C401.927 20.5262 402.259 21.0613 402.684 21.5093C403.11 21.9573 403.63 22.3058 404.243 22.5547C404.856 22.7911 405.545 22.9093 406.309 22.9093C407.411 22.9093 408.35 22.6604 409.126 22.1627C409.902 21.6649 410.478 20.8373 410.853 19.68H408.506C408.418 19.9787 408.18 20.2649 407.792 20.5387C407.404 20.8 406.941 20.9307 406.403 20.9307C405.651 20.9307 405.076 20.7378 404.675 20.352C404.274 19.9662 404.055 19.344 404.018 18.4853Z" fill="#BCBFC2"/>
<path d="M417.412 22.6667L420.698 13.016H418.05L416.003 19.6053H415.966L413.919 13.016H411.121L414.445 22.6667H417.412Z" fill="#BCBFC2"/>
</svg>
