<svg width="32" height="32" viewBox="0 0 32 32" fill="none" xmlns="http://www.w3.org/2000/svg">
<path d="M22.6667 26.6667H29.3334V24C29.3333 23.1481 29.0862 22.375 28.5922 21.6809C28.0982 20.9868 27.4487 20.5001 26.6437 20.221C25.8387 19.9419 25.0274 19.9221 24.2097 20.1614C23.392 20.4007 22.7195 20.8549 22.192 21.524M22.6667 26.6667H9.33335M22.6667 26.6667V24C22.6667 23.1254 22.4987 22.2894 22.192 21.524M22.192 21.524C21.6855 20.2582 20.8677 19.2432 19.7387 18.4789C18.6096 17.7146 17.3634 17.3324 16 17.3324C14.6366 17.3324 13.3904 17.7146 12.2614 18.4789C11.1323 19.2432 10.3145 20.2582 9.80802 21.524M9.33335 26.6667H2.66669V24C2.66675 23.1481 2.9138 22.375 3.40784 21.6809C3.90187 20.9868 4.55138 20.5001 5.35635 20.221C6.16133 19.9419 6.97266 19.9221 7.79034 20.1614C8.60802 20.4007 9.28058 20.8549 9.80802 21.524M9.33335 26.6667V24C9.33335 23.1254 9.50135 22.2894 9.80802 21.524M20 9.33337C20 10.4379 19.6095 11.3808 18.8284 12.1618C18.0474 12.9428 17.1046 13.3334 16 13.3334C14.8955 13.3334 13.9526 12.9429 13.1716 12.1618C12.3905 11.3808 12 10.4379 12 9.33337C12 8.2288 12.3905 7.286 13.1716 6.50495C13.9526 5.7239 14.8955 5.33337 16 5.33337C17.1046 5.33337 18.0474 5.7239 18.8284 6.50495C19.6095 7.286 20 8.2288 20 9.33337ZM28 13.3334C28 14.0698 27.7397 14.6983 27.219 15.219C26.6983 15.7397 26.0697 16 25.3334 16C24.597 16 23.9684 15.7397 23.4477 15.219C22.927 14.6983 22.6667 14.0698 22.6667 13.3334C22.6667 12.597 22.927 11.9685 23.4477 11.4478C23.9684 10.9271 24.597 10.6667 25.3334 10.6667C26.0697 10.6667 26.6983 10.9271 27.219 11.4478C27.7397 11.9685 28 12.597 28 13.3334ZM9.33335 13.3334C9.33335 14.0698 9.073 14.6983 8.5523 15.219C8.03161 15.7397 7.40307 16 6.66669 16C5.93031 16 5.30177 15.7397 4.78107 15.219C4.26037 14.6983 4.00002 14.0698 4.00002 13.3334C4.00002 12.597 4.26037 11.9685 4.78107 11.4478C5.30177 10.9271 5.93031 10.6667 6.66669 10.6667C7.40307 10.6667 8.03161 10.9271 8.5523 11.4478C9.073 11.9685 9.33335 12.597 9.33335 13.3334Z" stroke="#22FFF6" stroke-width="2.66667" stroke-linejoin="round"/>
</svg>
