<svg width="32" height="32" viewBox="0 0 32 32" fill="none" xmlns="http://www.w3.org/2000/svg">
<path d="M13.7667 5.756C14.3347 3.41467 17.6653 3.41467 18.2333 5.756C18.4167 6.51283 18.8681 7.04027 19.5875 7.33833C20.307 7.63639 20.9991 7.58272 21.664 7.17733C23.7213 5.924 26.0773 8.27867 24.824 10.3373C24.4192 11.0019 24.3657 11.6936 24.6634 12.4125C24.9611 13.1314 25.4879 13.5828 26.244 13.7667C28.5853 14.3347 28.5853 17.6653 26.244 18.2333C25.4872 18.4167 24.9597 18.8681 24.6617 19.5875C24.3636 20.307 24.4173 20.9991 24.8227 21.664C26.076 23.7213 23.7213 26.0773 21.6627 24.824C20.9981 24.4192 20.3064 24.3657 19.5875 24.6634C18.8686 24.9611 18.4172 25.4879 18.2333 26.244C17.6653 28.5853 14.3347 28.5853 13.7667 26.244C13.5833 25.4872 13.1319 24.9597 12.4125 24.6617C11.693 24.3636 11.0009 24.4173 10.336 24.8227C8.27867 26.076 5.92267 23.7213 7.176 21.6627C7.58077 20.9981 7.63431 20.3064 7.33663 19.5875C7.03895 18.8686 6.51207 18.4172 5.756 18.2333C3.41467 17.6653 3.41467 14.3347 5.756 13.7667C6.51283 13.5833 7.04027 13.1319 7.33833 12.4125C7.63639 11.693 7.58272 11.0009 7.17733 10.336C5.924 8.27867 8.27867 5.92267 10.3373 7.176C11.6653 7.98667 13.3987 7.26933 13.7667 5.756Z" stroke="#22FFF6" stroke-width="2.66667" stroke-linejoin="round"/>
<path d="M20 16C20 17.1046 19.6095 18.0474 18.8284 18.8284C18.0474 19.6095 17.1046 20 16 20C14.8954 20 13.9526 19.6095 13.1716 18.8284C12.3905 18.0474 12 17.1046 12 16C12 14.8954 12.3905 13.9526 13.1716 13.1716C13.9526 12.3905 14.8954 12 16 12C17.1046 12 18.0474 12.3905 18.8284 13.1716C19.6095 13.9526 20 14.8954 20 16Z" stroke="#22FFF6" stroke-width="2.66667" stroke-linejoin="round"/>
</svg>
