<svg width="48" height="48" viewBox="0 0 48 48" fill="none" xmlns="http://www.w3.org/2000/svg">
<path d="M18 23.9999L22 27.9999L30 19.9999M41.236 11.9679C38.0741 12.1359 35.0002 11.6932 32.0141 10.6398C29.0281 9.58652 26.3567 8.00255 24 5.88794C21.6433 8.00255 18.9719 9.58652 15.9859 10.6398C12.9999 11.6932 9.92591 12.1359 6.76401 11.9679C6.50954 12.9531 6.31839 13.9503 6.19054 14.9597C6.06269 15.9691 5.99918 16.9825 6.00001 17.9999C6.00001 29.1819 13.648 38.5799 24 41.2439C34.352 38.5799 42 29.1839 42 17.9999C42 15.9159 41.734 13.8959 41.236 11.9679Z" stroke="#22FFF6" stroke-width="4" stroke-linecap="round" stroke-linejoin="round"/>
</svg>
