<svg width="48" height="48" viewBox="0 0 48 48" fill="none" xmlns="http://www.w3.org/2000/svg">
<path d="M18 38V26C18 24.8954 17.6095 23.9526 16.8284 23.1716C16.0474 22.3905 15.1046 22 14 22H10C8.89543 22 7.95262 22.3905 7.17157 23.1716C6.39052 23.9526 6 24.8954 6 26V38C6 39.1046 6.39052 40.0474 7.17157 40.8284C7.95262 41.6095 8.89543 42 10 42H14C15.1046 42 16.0474 41.6095 16.8284 40.8284C17.6095 40.0474 18 39.1046 18 38ZM18 38V18C18 16.8954 18.3905 15.9526 19.1716 15.1716C19.9526 14.3905 20.8954 14 22 14H26C27.1046 14 28.0474 14.3905 28.8284 15.1716C29.6095 15.9526 30 16.8954 30 18V38M18 38C18 39.1046 18.3905 40.0474 19.1716 40.8284C19.9526 41.6095 20.8954 42 22 42H26C27.1046 42 28.0474 41.6095 28.8284 40.8284C29.6095 40.0474 30 39.1046 30 38M30 38V10C30 8.89543 30.3905 7.95262 31.1716 7.17157C31.9526 6.39052 32.8954 6 34 6H38C39.1046 6 40.0474 6.39052 40.8284 7.17157C41.6095 7.95262 42 8.89543 42 10V38C42 39.1046 41.6095 40.0474 40.8284 40.8284C40.0474 41.6095 39.1046 42 38 42H34C32.8954 42 31.9526 41.6095 31.1716 40.8284C30.3905 40.0474 30 39.1046 30 38Z" stroke="#22FFF6" stroke-width="4" stroke-linejoin="round"/>
</svg>
