<svg width="24" height="25" viewBox="0 0 24 25" fill="none" xmlns="http://www.w3.org/2000/svg">
<path d="M2 12.5001L11.6422 17.3212C11.7734 17.3868 11.839 17.4196 11.9078 17.4325C11.9687 17.4439 12.0313 17.4439 12.0922 17.4325C12.161 17.4196 12.2266 17.3868 12.3578 17.3212L22 12.5001M2 17.5001L11.6422 22.3212C11.7734 22.3868 11.839 22.4196 11.9078 22.4325C11.9687 22.4439 12.0313 22.4439 12.0922 22.4325C12.161 22.4196 12.2266 22.3868 12.3578 22.3212L22 17.5001M2 7.50006L11.6422 2.67895C11.7734 2.61336 11.839 2.58056 11.9078 2.56766C11.9687 2.55622 12.0313 2.55622 12.0922 2.56766C12.161 2.58056 12.2266 2.61336 12.3578 2.67895L22 7.50006L12.3578 12.3212C12.2266 12.3868 12.161 12.4196 12.0922 12.4325C12.0313 12.4439 11.9687 12.4439 11.9078 12.4325C11.839 12.4196 11.7734 12.3868 11.6422 12.3212L2 7.50006Z" stroke="white" stroke-width="2" stroke-linecap="round" stroke-linejoin="round"/>
</svg>
