<svg width="20" height="17" viewBox="0 0 20 17" fill="none" xmlns="http://www.w3.org/2000/svg">
<path d="M19.5 2.67489C18.8452 3.12229 18.0764 3.35986 17.2907 3.35761C18.1308 2.84786 18.7597 2.03799 19.0581 1.08189C18.3618 1.68826 17.4843 2.02972 16.5727 2.04907C15.9716 1.41496 15.1871 0.998744 14.3369 0.86288C13.4867 0.727017 12.6167 0.878836 11.8574 1.29555C11.098 1.71227 10.4904 2.37141 10.1256 3.17405C9.76086 3.97669 9.65864 4.87954 9.8343 5.74711C8.28743 5.66299 6.77502 5.24469 5.39528 4.51938C4.01554 3.79407 2.79932 2.77796 1.82558 1.53703C1.34909 2.42515 1.20958 3.46383 1.43407 4.45185C1.65856 5.43987 2.23108 6.3069 3.0407 6.88497C2.42967 6.89386 1.82487 6.75758 1.27326 6.48672C1.28811 7.40316 1.60093 8.288 2.16167 8.99968C2.72241 9.71137 3.49867 10.2088 4.36628 10.4123C3.78874 10.5677 3.18466 10.5871 2.59884 10.4692C2.85155 11.2811 3.34391 11.9915 4.00726 12.5014C4.67062 13.0114 5.4719 13.2954 6.29942 13.3139C4.55172 14.406 2.5441 14.9771 0.5 14.9638C2.21195 16.115 4.20048 16.7543 6.24424 16.8104C8.28799 16.8665 10.3068 16.3374 12.0759 15.2817C13.8449 14.2261 15.2949 12.6855 16.2644 10.8314C17.2338 8.97725 17.6847 6.88237 17.5669 4.77993C18.2957 4.16598 18.9453 3.45856 19.5 2.67489Z" fill="white"/>
</svg>
