<svg width="22" height="17" viewBox="0 0 22 17" fill="none" xmlns="http://www.w3.org/2000/svg">
<path d="M21.45 3.24303C21.175 2.24303 20.4875 1.52874 19.525 1.24302C17.875 0.814453 10.8625 0.814453 10.8625 0.814453C10.8625 0.814453 3.98751 0.814453 2.20001 1.24302C1.23751 1.52874 0.549996 2.24303 0.274996 3.24303C-4.20026e-06 5.10017 0 8.81445 0 8.81445C0 8.81445 4.17978e-06 12.5287 0.412504 14.3859C0.687504 15.3859 1.375 16.1002 2.3375 16.3859C3.9875 16.8145 11 16.8145 11 16.8145C11 16.8145 17.875 16.8145 19.6625 16.3859C20.625 16.1002 21.3125 15.3859 21.5875 14.3859C22 12.5287 22 8.81445 22 8.81445C22 8.81445 22 5.10017 21.45 3.24303ZM8.79999 12.243V5.38588L14.575 8.81445L8.79999 12.243Z" fill="white"/>
</svg>
